{
  "accessors": [
    {
      "bufferView": 2,
      "componentType": 5126,
      "count": 447,
      "max": [
        20.155651092529297,
        22.04430389404297,
        31.27351951599121
      ],
      "min": [
        -20.36797332763672,
        -22.63336181640625,
        -36.823402404785156
      ],
      "type": "VEC3"
    },
    {
      "bufferView": 2,
      "byteOffset": 5364,
      "componentType": 5126,
      "count": 447,
      "max": [
        0.9999409317970276,
        0.9998877048492432,
        0.9999346733093262
      ],
      "min": [
        -0.999720573425293,
        -0.9997624158859253,
        -0.9987888932228088
      ],
      "type": "VEC3"
    },
    {
      "bufferView": 3,
      "componentType": 5126,
      "count": 447,
      "max": [
        0.9998804330825806,
        0.9999673962593079,
        0.7962578535079956,
        1.0
      ],
      "min": [
        -0.999951958656311,
        -0.9997862577438354,
        -0.9717775583267212,
        1.0
      ],
      "type": "VEC4"
    },
    {
      "bufferView": 1,
      "componentType": 5126,
      "count": 447,
      "max": [
        0.9990121126174927,
        0.9974910020828247
      ],
      "min": [
        0.004297567531466484,
        0.0011587721528485417
      ],
      "type": "VEC2"
    },
    {
      "bufferView": 0,
      "componentType": 5125,
      "count": 1926,
      "type": "SCALAR"
    }
  ],
  "asset": {
    "extras": {
      "author": "Alexander Komendant (SashaRX) (https://sketchfab.com/sk9542)",
      "license": "CC-BY-4.0 (http://creativecommons.org/licenses/by/4.0/)",
      "source": "https://sketchfab.com/3d-models/plastic-jerrycan-071ee7fa1d4548aba415b0558a5379ed",
      "title": "Plastic Jerrycan"
    },
    "generator": "Sketchfab-12.65.0",
    "version": "2.0"
  },
  "bufferViews": [
    {
      "buffer": 0,
      "byteLength": 7704,
      "name": "floatBufferViews",
      "target": 34963
    },
    {
      "buffer": 0,
      "byteLength": 3576,
      "byteOffset": 7704,
      "byteStride": 8,
      "name": "floatBufferViews",
      "target": 34962
    },
    {
      "buffer": 0,
      "byteLength": 10728,
      "byteOffset": 11280,
      "byteStride": 12,
      "name": "floatBufferViews",
      "target": 34962
    },
    {
      "buffer": 0,
      "byteLength": 7152,
      "byteOffset": 22008,
      "byteStride": 16,
      "name": "floatBufferViews",
      "target": 34962
    }
  ],
  "buffers": [
    {
      "byteLength": 29160,
      "uri": "scene.bin"
    }
  ],
  "images": [
    {
      "uri": "textures/07_-_Default_baseColor.jpeg"
    },
    {
      "uri": "textures/07_-_Default_metallicRoughness.png"
    },
    {
      "uri": "textures/07_-_Default_normal.png"
    }
  ],
  "materials": [
    {
      "doubleSided": true,
      "name": "07_-_Default",
      "normalTexture": {
        "index": 2
      },
      "occlusionTexture": {
        "index": 1
      },
      "pbrMetallicRoughness": {
        "baseColorTexture": {
          "index": 0
        },
        "metallicFactor": 0.0,
        "metallicRoughnessTexture": {
          "index": 1
        }
      }
    }
  ],
  "meshes": [
    {
      "name": "Low_07 - Default_0",
      "primitives": [
        {
          "attributes": {
            "NORMAL": 1,
            "POSITION": 0,
            "TANGENT": 2,
            "TEXCOORD_0": 3
          },
          "indices": 4,
          "material": 0,
          "mode": 4
        }
      ]
    }
  ],
  "nodes": [
    {
      "children": [
        1
      ],
      "matrix": [
        -1.0,
        -1.60812262295773e-16,
        2.8327693431939985e-16,
        0.0,
        2.832769343193999e-16,
        -6.123234262925839e-17,
        1.0,
        0.0,
        -1.6081226229577292e-16,
        1.0,
        6.123234262925839e-17,
        0.0,
        -0.21236038208007813,
        1.6455321771803502e-15,
        0.5891819000244141,
        1.0
      ],
      "name": "Sketchfab_model"
    },
    {
      "children": [
        2
      ],
      "matrix": [
        1.0,
        0.0,
        0.0,
        0.0,
        0.0,
        0.0,
        1.0,
        0.0,
        0.0,
        -1.0,
        0.0,
        0.0,
        0.0,
        0.0,
        0.0,
        1.0
      ],
      "name": "PlasticJerrycan.FBX"
    },
    {
      "children": [
        3
      ],
      "name": "RootNode"
    },
    {
      "children": [
        4
      ],
      "matrix": [
        1.0,
        0.0,
        0.0,
        0.0,
        0.0,
        2.220446049250313e-16,
        -1.0,
        0.0,
        0.0,
        1.0,
        2.220446049250313e-16,
        0.0,
        0.0,
        0.0,
        0.0,
        1.0
      ],
      "name": "Low"
    },
    {
      "mesh": 0,
      "name": "Low_07 - Default_0"
    }
  ],
  "samplers": [
    {
      "magFilter": 9729,
      "minFilter": 9987,
      "wrapS": 10497,
      "wrapT": 10497
    }
  ],
  "scene": 0,
  "scenes": [
    {
      "name": "Sketchfab_Scene",
      "nodes": [
        0
      ]
    }
  ],
  "textures": [
    {
      "sampler": 0,
      "source": 0
    },
    {
      "sampler": 0,
      "source": 1
    },
    {
      "sampler": 0,
      "source": 2
    }
  ]
}
