{
  "accessors": [
    {
      "bufferView": 2,
      "componentType": 5126,
      "count": 1876,
      "max": [
        105.14712524414063,
        85.5943603515625,
        311.98834228515625
      ],
      "min": [
        -102.4088134765625,
        -90.81060791015625,
        -0.1107029989361763
      ],
      "type": "VEC3"
    },
    {
      "bufferView": 2,
      "byteOffset": 22512,
      "componentType": 5126,
      "count": 1876,
      "max": [
        0.9998446702957153,
        0.9955061078071594,
        0.9999953508377075
      ],
      "min": [
        -0.9997592568397522,
        -0.9971597790718079,
        -0.9996060132980347
      ],
      "type": "VEC3"
    },
    {
      "bufferView": 3,
      "componentType": 5126,
      "count": 1876,
      "max": [
        0.9999554753303528,
        0.9997783303260803,
        0.9998326301574707,
        1.0
      ],
      "min": [
        -0.9982967972755432,
        -0.9998015761375427,
        -0.9910262227058411,
        -1.0
      ],
      "type": "VEC4"
    },
    {
      "bufferView": 1,
      "componentType": 5126,
      "count": 1876,
      "max": [
        0.9986699819564819,
        0.9976739883422852
      ],
      "min": [
        0.0,
        0.0
      ],
      "type": "VEC2"
    },
    {
      "bufferView": 0,
      "componentType": 5125,
      "count": 9237,
      "type": "SCALAR"
    }
  ],
  "asset": {
    "extras": {
      "author": "zvanstone (https://sketchfab.com/zvanstone)",
      "license": "CC-BY-4.0 (http://creativecommons.org/licenses/by/4.0/)",
      "source": "https://sketchfab.com/3d-models/tomato-plant-e0b559690e384fc0a9f3a05913f609c4",
      "title": "Tomato Plant"
    },
    "generator": "Sketchfab-12.67.0",
    "version": "2.0"
  },
  "bufferViews": [
    {
      "buffer": 0,
      "byteLength": 36948,
      "name": "floatBufferViews",
      "target": 34963
    },
    {
      "buffer": 0,
      "byteLength": 15008,
      "byteOffset": 36948,
      "byteStride": 8,
      "name": "floatBufferViews",
      "target": 34962
    },
    {
      "buffer": 0,
      "byteLength": 45024,
      "byteOffset": 51956,
      "byteStride": 12,
      "name": "floatBufferViews",
      "target": 34962
    },
    {
      "buffer": 0,
      "byteLength": 30016,
      "byteOffset": 96980,
      "byteStride": 16,
      "name": "floatBufferViews",
      "target": 34962
    }
  ],
  "buffers": [
    {
      "byteLength": 126996,
      "uri": "scene.bin"
    }
  ],
  "images": [
    {
      "uri": "textures/lambert4SG_baseColor.png"
    },
    {
      "uri": "textures/lambert4SG_metallicRoughness.png"
    },
    {
      "uri": "textures/lambert4SG_normal.png"
    }
  ],
  "materials": [
    {
      "alphaCutoff": 0.13586128048780494,
      "alphaMode": "MASK",
      "doubleSided": true,
      "name": "lambert4SG",
      "normalTexture": {
        "index": 2,
        "scale": 0.45293445121951226
      },
      "occlusionTexture": {
        "index": 1,
        "strength": 0.34927591463414637
      },
      "pbrMetallicRoughness": {
        "baseColorTexture": {
          "index": 0
        },
        "metallicFactor": 0.0,
        "metallicRoughnessTexture": {
          "index": 1
        }
      }
    }
  ],
  "meshes": [
    {
      "name": "Object_0",
      "primitives": [
        {
          "attributes": {
            "NORMAL": 1,
            "POSITION": 0,
            "TANGENT": 2,
            "TEXCOORD_0": 3
          },
          "indices": 4,
          "material": 0,
          "mode": 4
        }
      ]
    }
  ],
  "nodes": [
    {
      "children": [
        1
      ],
      "matrix": [
        1.0,
        0.0,
        0.0,
        0.0,
        0.0,
        2.220446049250313e-16,
        -1.0,
        0.0,
        0.0,
        1.0,
        2.220446049250313e-16,
        0.0,
        0.0,
        0.0,
        0.0,
        1.0
      ],
      "name": "Sketchfab_model"
    },
    {
      "children": [
        2
      ],
      "name": "tomato-plant.obj.cleaner.materialmerger.gles"
    },
    {
      "mesh": 0,
      "name": "Object_2"
    }
  ],
  "samplers": [
    {
      "magFilter": 9729,
      "minFilter": 9987,
      "wrapS": 10497,
      "wrapT": 10497
    }
  ],
  "scene": 0,
  "scenes": [
    {
      "name": "Sketchfab_Scene",
      "nodes": [
        0
      ]
    }
  ],
  "textures": [
    {
      "sampler": 0,
      "source": 0
    },
    {
      "sampler": 0,
      "source": 1
    },
    {
      "sampler": 0,
      "source": 2
    }
  ]
}
